<svg xmlns="http://www.w3.org/2000/svg" direction="ltr" width="807.5166778564453" height="731.8000030517578" viewBox="534.0666656494141 -1011.1999969482422 807.5166778564453 731.8000030517578" stroke-linecap="round" stroke-linejoin="round" style="background-color: rgb(249, 250, 251);" encoding="UTF-8&quot;"><defs/><g transform="matrix(1, 0, 0, 1, 613, -572)" opacity="1"><path d="M7,-0.0172 L217.458,-0.5329 Q224.4579,-0.5501 224.4335,6.4499 L223.8498,173.802 Q223.8254,180.8019 216.8254,180.7982 L7.3873,180.6871 Q0.3873,180.6834 0.3283,173.6837 L-1.0707,7.672 Q-1.1297,0.6723 5.8703,0.6821 L216.003,0.9763 Q223.003,0.9861 223.0025,7.9861 L222.9899,173.511 Q222.9894,180.511 215.9895,180.5499 L6.4025,181.7152 Q-0.5974,181.7541 -0.5538,174.7543 L0.4893,7.4849 Q0.533,0.4851 7,-0.0172 " fill="none" stroke="#1d1d1d" stroke-width="3.5"/></g><g transform="matrix(1, 0, 0, 1, 1020, -572)" opacity="1"><path d="M6.9999,-0.0269 L217.0529,-0.8341 Q224.0528,-0.861 224.0679,6.139 L224.4322,174.7715 Q224.4473,181.7715 217.4473,181.7403 L7.1193,180.8023 Q0.1194,180.7711 0.1384,173.7711 L0.5899,7.4765 Q0.6089,0.4765 7.6089,0.4623 L216.9647,0.038 Q223.9647,0.0238 223.9863,7.0237 L224.5052,174.447 Q224.5269,181.447 217.5269,181.4273 L7.4799,180.8365 Q0.4799,180.8168 0.4309,173.817 L-0.7399,6.5566 Q-0.7889,-0.4433 6.9999,-0.0269 " fill="none" stroke="#1d1d1d" stroke-width="3.5"/></g><g transform="matrix(1, 0, 0, 1, 639.9924, -563.2) scale(0.8317644712866294, 0.8317644712866294)" opacity="1"><g><text font-size="24px" font-family="'tldraw_draw', sans-serif" font-style="normal" font-weight="normal" line-height="32.400000000000006px" dominant-baseline="mathematical" alignment-baseline="mathematical" stroke="rgb(249, 250, 251)" stroke-width="2px" fill="rgb(249, 250, 251)"><tspan alignment-baseline="mathematical" x="0.68359375px" y="12.7001953125px">Original</tspan><tspan alignment-baseline="mathematical" x="98.4169921875px" y="12.7001953125px"> </tspan><tspan alignment-baseline="mathematical" x="106.650390625px" y="12.7001953125px">Program</tspan></text><text font-size="24px" font-family="'tldraw_draw', sans-serif" font-style="normal" font-weight="normal" line-height="32.400000000000006px" dominant-baseline="mathematical" alignment-baseline="mathematical" stroke="none" stroke-width="2px" fill="#1d1d1d"><tspan alignment-baseline="mathematical" x="0.68359375px" y="12.7001953125px">Original</tspan><tspan alignment-baseline="mathematical" x="98.4169921875px" y="12.7001953125px"> </tspan><tspan alignment-baseline="mathematical" x="106.650390625px" y="12.7001953125px">Program</tspan></text></g></g><g transform="matrix(1, 0, 0, 1, 1027.95, -561.2) scale(0.850866589722846, 0.850866589722846)" opacity="1"><g><text font-size="24px" font-family="'tldraw_draw', sans-serif" font-style="normal" font-weight="normal" line-height="32.400000000000006px" dominant-baseline="mathematical" alignment-baseline="mathematical" stroke="rgb(249, 250, 251)" stroke-width="2px" fill="rgb(249, 250, 251)"><tspan alignment-baseline="mathematical" x="0.9501953125px" y="12.7001953125px">Refactored</tspan><tspan alignment-baseline="mathematical" x="135.1669921875px" y="12.7001953125px"> </tspan><tspan alignment-baseline="mathematical" x="143.400390625px" y="12.7001953125px">Program</tspan></text><text font-size="24px" font-family="'tldraw_draw', sans-serif" font-style="normal" font-weight="normal" line-height="32.400000000000006px" dominant-baseline="mathematical" alignment-baseline="mathematical" stroke="none" stroke-width="2px" fill="#1d1d1d"><tspan alignment-baseline="mathematical" x="0.9501953125px" y="12.7001953125px">Refactored</tspan><tspan alignment-baseline="mathematical" x="135.1669921875px" y="12.7001953125px"> </tspan><tspan alignment-baseline="mathematical" x="143.400390625px" y="12.7001953125px">Program</tspan></text></g></g><g transform="matrix(1, 0, 0, 1, 812, -870)" opacity="1"><path d="M6.9999,0.0308 L216.6006,0.9522 Q223.6005,0.983 223.6031,7.983 L223.6643,172.8698 Q223.6669,179.8698 216.6669,179.8823 L7.1319,180.2548 Q0.1319,180.2673 0.1168,173.2673 L-0.2417,7.9846 Q-0.2568,0.9846 6.7431,0.9469 L216.2405,-0.1823 Q223.2404,-0.2201 223.2288,6.7799 L222.9527,173.5786 Q222.9411,180.5786 215.9412,180.5954 L7.4376,181.0963 Q0.4376,181.1132 0.4341,174.1132 L0.3507,6.8242 Q0.3472,-0.1758 6.9999,0.0308 " fill="none" stroke="#1d1d1d" stroke-width="3.5"/></g><g transform="matrix(1, 0, 0, 1, 707, -576)" opacity="1"><g><defs><mask id="shape_Y6FbtmvH5YbYKs7otz9ML_clip"><rect x="-100" y="-234" width="303" height="334" fill="white"/><path d="M 93.29590747407198 -129.9899391216307 L 103 -134 L 101.62076832842594 -123.59097891268699" fill="none" stroke="none"/></mask></defs><g mask="url(#shape_Y6FbtmvH5YbYKs7otz9ML_clip)"><rect x="-100" y="-100" width="303" height="334" fill="transparent" stroke="none"/><path d="M0,0L103,-134" fill="none" stroke="#1d1d1d" stroke-width="3.5" stroke-dasharray="none" stroke-dashoffset="none"/></g><path d="M 93.29590747407198 -129.9899391216307 L 103 -134 L 101.62076832842594 -123.59097891268699" fill="none" stroke="#1d1d1d" stroke-width="3.5"/></g></g><g transform="matrix(1, 0, 0, 1, 1138, -576)" opacity="1"><g><defs><mask id="shape_m1njpdGym92WBoWSdSJ6V_clip"><rect x="-201" y="-235" width="301" height="335" fill="white"/><path d="M -99.75640692056044 -124.57390407425818 L -101 -135 L -91.34893952629437 -130.86393523589427" fill="none" stroke="none"/></mask></defs><g mask="url(#shape_m1njpdGym92WBoWSdSJ6V_clip)"><rect x="-100" y="-100" width="301" height="335" fill="transparent" stroke="none"/><path d="M0,0L-101,-135" fill="none" stroke="#1d1d1d" stroke-width="3.5" stroke-dasharray="none" stroke-dashoffset="none"/></g><path d="M -99.75640692056044 -124.57390407425818 L -101 -135 L -91.34893952629437 -130.86393523589427" fill="none" stroke="#1d1d1d" stroke-width="3.5"/></g></g><g transform="matrix(1, 0, 0, 1, 1035, -749)" opacity="1"><g><defs><mask id="shape_vOViQEc8jZdK9jaPQXKhw_clip"><rect x="-147.83221476510062" y="-40" width="273.93765387285623" height="305.9299079524576" fill="white"/><path d="M 25.205909563996784 155.46851002484274 L 26.10543910775562 165.92990795245763 L 16.595837971463823 161.47822442499995" fill="none" stroke="none"/></mask></defs><g mask="url(#shape_vOViQEc8jZdK9jaPQXKhw_clip)"><rect x="-100" y="-100" width="273.93765387285623" height="305.9299079524576" fill="transparent" stroke="none"/><path d="M-47.832214765100616,60L26.10543910775562,165.92990795245763" fill="none" stroke="#1d1d1d" stroke-width="3.5" stroke-dasharray="none" stroke-dashoffset="none"/></g><path d="M 25.205909563996784 155.46851002484274 L 26.10543910775562 165.92990795245763 L 16.595837971463823 161.47822442499995" fill="none" stroke="#1d1d1d" stroke-width="3.5"/></g></g><g transform="matrix(1, 0, 0, 1, 910, -772)" opacity="1"><g><defs><mask id="shape_vUAm8OGWxGPs_tUwW8pDH_clip"><rect x="-217.0682918142402" y="-17" width="270.63372805585095" height="305.7731204052441" fill="white"/><path d="M -107.6523916707677 184.12652762255328 L -117.06829181424021 188.7731204052441 L -116.38440913335562 178.29541529015395" fill="none" stroke="none"/></mask></defs><g mask="url(#shape_vUAm8OGWxGPs_tUwW8pDH_clip)"><rect x="-100" y="-100" width="270.63372805585095" height="305.7731204052441" fill="transparent" stroke="none"/><path d="M-46.43456375838923,83L-117.06829181424021,188.7731204052441" fill="none" stroke="#1d1d1d" stroke-width="3.5" stroke-dasharray="none" stroke-dashoffset="none"/></g><path d="M -107.6523916707677 184.12652762255328 L -117.06829181424021 188.7731204052441 L -116.38440913335562 178.29541529015395" fill="none" stroke="#1d1d1d" stroke-width="3.5"/></g></g><g transform="matrix(1, 0, 0, 1, 852.4167, -651.2)" opacity="1"><g><text font-size="24px" font-family="'tldraw_draw', sans-serif" font-style="normal" font-weight="normal" line-height="32.400000000000006px" dominant-baseline="mathematical" alignment-baseline="mathematical" stroke="rgb(249, 250, 251)" stroke-width="2px" fill="rgb(249, 250, 251)"><tspan alignment-baseline="mathematical" x="0.9169921875px" y="12.7001953125px">Parameters</tspan></text><text font-size="24px" font-family="'tldraw_draw', sans-serif" font-style="normal" font-weight="normal" line-height="32.400000000000006px" dominant-baseline="mathematical" alignment-baseline="mathematical" stroke="none" stroke-width="2px" fill="#1d1d1d"><tspan alignment-baseline="mathematical" x="0.9169921875px" y="12.7001953125px">Parameters</tspan></text></g></g><g transform="matrix(1, 0, 0, 1, 1097.85, -671.2)" opacity="1"><g><text font-size="24px" font-family="'tldraw_draw', sans-serif" font-style="normal" font-weight="normal" line-height="32.400000000000006px" dominant-baseline="mathematical" alignment-baseline="mathematical" stroke="rgb(249, 250, 251)" stroke-width="2px" fill="rgb(249, 250, 251)"><tspan alignment-baseline="mathematical" x="0.849609375px" y="12.7001953125px">Results</tspan></text><text font-size="24px" font-family="'tldraw_draw', sans-serif" font-style="normal" font-weight="normal" line-height="32.400000000000006px" dominant-baseline="mathematical" alignment-baseline="mathematical" stroke="none" stroke-width="2px" fill="#1d1d1d"><tspan alignment-baseline="mathematical" x="0.849609375px" y="12.7001953125px">Results</tspan></text></g></g><g transform="matrix(1, 0, 0, 1, 660.85, -671.2)" opacity="1"><g><text font-size="24px" font-family="'tldraw_draw', sans-serif" font-style="normal" font-weight="normal" line-height="32.400000000000006px" dominant-baseline="mathematical" alignment-baseline="mathematical" stroke="rgb(249, 250, 251)" stroke-width="2px" fill="rgb(249, 250, 251)"><tspan alignment-baseline="mathematical" x="0.849609375px" y="12.7001953125px">Results</tspan></text><text font-size="24px" font-family="'tldraw_draw', sans-serif" font-style="normal" font-weight="normal" line-height="32.400000000000006px" dominant-baseline="mathematical" alignment-baseline="mathematical" stroke="none" stroke-width="2px" fill="#1d1d1d"><tspan alignment-baseline="mathematical" x="0.849609375px" y="12.7001953125px">Results</tspan></text></g></g><g transform="matrix(1, 0, 0, 1, 566.0667, -377.2)" opacity="1"><g><text font-size="24px" font-family="'tldraw_draw', sans-serif" font-style="normal" font-weight="normal" line-height="32.400000000000006px" dominant-baseline="mathematical" alignment-baseline="mathematical" stroke="rgb(249, 250, 251)" stroke-width="2px" fill="rgb(249, 250, 251)"><tspan alignment-baseline="mathematical" x="45.8662109375px" y="12.50048828125px">Node</tspan><tspan alignment-baseline="mathematical" x="109.650390625px" y="12.50048828125px"> </tspan><tspan alignment-baseline="mathematical" x="117.8837890625px" y="12.50048828125px">responsible</tspan><tspan alignment-baseline="mathematical" x="256.1162109375px" y="12.50048828125px"> </tspan><tspan alignment-baseline="mathematical" x="0px" y="44.89990234375px">
</tspan><tspan alignment-baseline="mathematical" x="0.56640625px" y="44.89990234375px">for</tspan><tspan alignment-baseline="mathematical" x="36.5166015625px" y="44.89990234375px"> </tspan><tspan alignment-baseline="mathematical" x="44.75px" y="44.89990234375px">the</tspan><tspan alignment-baseline="mathematical" x="85.5166015625px" y="44.89990234375px"> </tspan><tspan alignment-baseline="mathematical" x="93.75px" y="44.89990234375px">original</tspan><tspan alignment-baseline="mathematical" x="189.099609375px" y="44.89990234375px"> </tspan><tspan alignment-baseline="mathematical" x="197.3330078125px" y="44.89990234375px">program</tspan></text><text font-size="24px" font-family="'tldraw_draw', sans-serif" font-style="normal" font-weight="normal" line-height="32.400000000000006px" dominant-baseline="mathematical" alignment-baseline="mathematical" stroke="none" stroke-width="2px" fill="#1d1d1d"><tspan alignment-baseline="mathematical" x="45.8662109375px" y="12.50048828125px">Node</tspan><tspan alignment-baseline="mathematical" x="109.650390625px" y="12.50048828125px"> </tspan><tspan alignment-baseline="mathematical" x="117.8837890625px" y="12.50048828125px">responsible</tspan><tspan alignment-baseline="mathematical" x="256.1162109375px" y="12.50048828125px"> </tspan><tspan alignment-baseline="mathematical" x="0px" y="44.89990234375px">
</tspan><tspan alignment-baseline="mathematical" x="0.56640625px" y="44.89990234375px">for</tspan><tspan alignment-baseline="mathematical" x="36.5166015625px" y="44.89990234375px"> </tspan><tspan alignment-baseline="mathematical" x="44.75px" y="44.89990234375px">the</tspan><tspan alignment-baseline="mathematical" x="85.5166015625px" y="44.89990234375px"> </tspan><tspan alignment-baseline="mathematical" x="93.75px" y="44.89990234375px">original</tspan><tspan alignment-baseline="mathematical" x="189.099609375px" y="44.89990234375px"> </tspan><tspan alignment-baseline="mathematical" x="197.3330078125px" y="44.89990234375px">program</tspan></text></g></g><g transform="matrix(1, 0, 0, 1, 974.4167, -376.2)" opacity="1"><g><text font-size="24px" font-family="'tldraw_draw', sans-serif" font-style="normal" font-weight="normal" line-height="32.400000000000006px" dominant-baseline="mathematical" alignment-baseline="mathematical" stroke="rgb(249, 250, 251)" stroke-width="2px" fill="rgb(249, 250, 251)"><tspan alignment-baseline="mathematical" x="62.8662109375px" y="12.50048828125px">Node</tspan><tspan alignment-baseline="mathematical" x="126.650390625px" y="12.50048828125px"> </tspan><tspan alignment-baseline="mathematical" x="134.8837890625px" y="12.50048828125px">responsible</tspan><tspan alignment-baseline="mathematical" x="273.1162109375px" y="12.50048828125px"> </tspan><tspan alignment-baseline="mathematical" x="0px" y="44.89990234375px">
</tspan><tspan alignment-baseline="mathematical" x="0.9169921875px" y="44.89990234375px">for</tspan><tspan alignment-baseline="mathematical" x="36.8662109375px" y="44.89990234375px"> </tspan><tspan alignment-baseline="mathematical" x="45.099609375px" y="44.89990234375px">the</tspan><tspan alignment-baseline="mathematical" x="85.8662109375px" y="44.89990234375px"> </tspan><tspan alignment-baseline="mathematical" x="94.099609375px" y="44.89990234375px">refactored</tspan><tspan alignment-baseline="mathematical" x="222.75px" y="44.89990234375px"> </tspan><tspan alignment-baseline="mathematical" x="230.9833984375px" y="44.89990234375px">program</tspan></text><text font-size="24px" font-family="'tldraw_draw', sans-serif" font-style="normal" font-weight="normal" line-height="32.400000000000006px" dominant-baseline="mathematical" alignment-baseline="mathematical" stroke="none" stroke-width="2px" fill="#1d1d1d"><tspan alignment-baseline="mathematical" x="62.8662109375px" y="12.50048828125px">Node</tspan><tspan alignment-baseline="mathematical" x="126.650390625px" y="12.50048828125px"> </tspan><tspan alignment-baseline="mathematical" x="134.8837890625px" y="12.50048828125px">responsible</tspan><tspan alignment-baseline="mathematical" x="273.1162109375px" y="12.50048828125px"> </tspan><tspan alignment-baseline="mathematical" x="0px" y="44.89990234375px">
</tspan><tspan alignment-baseline="mathematical" x="0.9169921875px" y="44.89990234375px">for</tspan><tspan alignment-baseline="mathematical" x="36.8662109375px" y="44.89990234375px"> </tspan><tspan alignment-baseline="mathematical" x="45.099609375px" y="44.89990234375px">the</tspan><tspan alignment-baseline="mathematical" x="85.8662109375px" y="44.89990234375px"> </tspan><tspan alignment-baseline="mathematical" x="94.099609375px" y="44.89990234375px">refactored</tspan><tspan alignment-baseline="mathematical" x="222.75px" y="44.89990234375px"> </tspan><tspan alignment-baseline="mathematical" x="230.9833984375px" y="44.89990234375px">program</tspan></text></g></g><g transform="matrix(1, 0, 0, 1, 633.075, -492.2)" opacity="1"><g><text font-size="24px" font-family="'tldraw_draw', sans-serif" font-style="normal" font-weight="normal" line-height="32.400000000000006px" dominant-baseline="mathematical" alignment-baseline="mathematical" stroke="rgb(249, 250, 251)" stroke-width="2px" fill="rgb(249, 250, 251)"><tspan alignment-baseline="mathematical" x="0.56640625px" y="12.7001953125px">f(parameters)</tspan></text><text font-size="24px" font-family="'tldraw_draw', sans-serif" font-style="normal" font-weight="normal" line-height="32.400000000000006px" dominant-baseline="mathematical" alignment-baseline="mathematical" stroke="none" stroke-width="2px" fill="#1d1d1d"><tspan alignment-baseline="mathematical" x="0.56640625px" y="12.7001953125px">f(parameters)</tspan></text></g></g><g transform="matrix(1, 0, 0, 1, 1041.6417, -494.2)" opacity="1"><g><text font-size="24px" font-family="'tldraw_draw', sans-serif" font-style="normal" font-weight="normal" line-height="32.400000000000006px" dominant-baseline="mathematical" alignment-baseline="mathematical" stroke="rgb(249, 250, 251)" stroke-width="2px" fill="rgb(249, 250, 251)"><tspan alignment-baseline="mathematical" x="0.6337890625px" y="12.7001953125px">f'(parameters)</tspan></text><text font-size="24px" font-family="'tldraw_draw', sans-serif" font-style="normal" font-weight="normal" line-height="32.400000000000006px" dominant-baseline="mathematical" alignment-baseline="mathematical" stroke="none" stroke-width="2px" fill="#1d1d1d"><tspan alignment-baseline="mathematical" x="0.6337890625px" y="12.7001953125px">f'(parameters)</tspan></text></g></g><g transform="matrix(1, 0, 0, 1, 752.1583, -979.2)" opacity="1"><g><text font-size="24px" font-family="'tldraw_draw', sans-serif" font-style="normal" font-weight="normal" line-height="32.400000000000006px" dominant-baseline="mathematical" alignment-baseline="mathematical" stroke="rgb(249, 250, 251)" stroke-width="2px" fill="rgb(249, 250, 251)"><tspan alignment-baseline="mathematical" x="64.8662109375px" y="12.80029296875px">Node</tspan><tspan alignment-baseline="mathematical" x="128.650390625px" y="12.80029296875px"> </tspan><tspan alignment-baseline="mathematical" x="136.8837890625px" y="12.80029296875px">responsible</tspan><tspan alignment-baseline="mathematical" x="275.1162109375px" y="12.80029296875px"> </tspan><tspan alignment-baseline="mathematical" x="0px" y="45.19970703125px">
</tspan><tspan alignment-baseline="mathematical" x="37.8330078125px" y="45.19970703125px">for</tspan><tspan alignment-baseline="mathematical" x="73.783203125px" y="45.19970703125px"> </tspan><tspan alignment-baseline="mathematical" x="82.0166015625px" y="45.19970703125px">comparing</tspan><tspan alignment-baseline="mathematical" x="210.18359375px" y="45.19970703125px"> </tspan><tspan alignment-baseline="mathematical" x="218.4169921875px" y="45.19970703125px">results</tspan><tspan alignment-baseline="mathematical" x="302.150390625px" y="45.19970703125px"> </tspan><tspan alignment-baseline="mathematical" x="0px" y="77.60009765625px">
</tspan><tspan alignment-baseline="mathematical" x="0.650390625px" y="77.60009765625px">and</tspan><tspan alignment-baseline="mathematical" x="48.150390625px" y="77.60009765625px"> </tspan><tspan alignment-baseline="mathematical" x="56.3837890625px" y="77.60009765625px">generating</tspan><tspan alignment-baseline="mathematical" x="190.25px" y="77.60009765625px"> </tspan><tspan alignment-baseline="mathematical" x="198.4833984375px" y="77.60009765625px">parameters</tspan></text><text font-size="24px" font-family="'tldraw_draw', sans-serif" font-style="normal" font-weight="normal" line-height="32.400000000000006px" dominant-baseline="mathematical" alignment-baseline="mathematical" stroke="none" stroke-width="2px" fill="#1d1d1d"><tspan alignment-baseline="mathematical" x="64.8662109375px" y="12.80029296875px">Node</tspan><tspan alignment-baseline="mathematical" x="128.650390625px" y="12.80029296875px"> </tspan><tspan alignment-baseline="mathematical" x="136.8837890625px" y="12.80029296875px">responsible</tspan><tspan alignment-baseline="mathematical" x="275.1162109375px" y="12.80029296875px"> </tspan><tspan alignment-baseline="mathematical" x="0px" y="45.19970703125px">
</tspan><tspan alignment-baseline="mathematical" x="37.8330078125px" y="45.19970703125px">for</tspan><tspan alignment-baseline="mathematical" x="73.783203125px" y="45.19970703125px"> </tspan><tspan alignment-baseline="mathematical" x="82.0166015625px" y="45.19970703125px">comparing</tspan><tspan alignment-baseline="mathematical" x="210.18359375px" y="45.19970703125px"> </tspan><tspan alignment-baseline="mathematical" x="218.4169921875px" y="45.19970703125px">results</tspan><tspan alignment-baseline="mathematical" x="302.150390625px" y="45.19970703125px"> </tspan><tspan alignment-baseline="mathematical" x="0px" y="77.60009765625px">
</tspan><tspan alignment-baseline="mathematical" x="0.650390625px" y="77.60009765625px">and</tspan><tspan alignment-baseline="mathematical" x="48.150390625px" y="77.60009765625px"> </tspan><tspan alignment-baseline="mathematical" x="56.3837890625px" y="77.60009765625px">generating</tspan><tspan alignment-baseline="mathematical" x="190.25px" y="77.60009765625px"> </tspan><tspan alignment-baseline="mathematical" x="198.4833984375px" y="77.60009765625px">parameters</tspan></text></g></g></svg>